<svg width="160" height="142" viewBox="0 0 160 142" fill="none" xmlns="http://www.w3.org/2000/svg">
<g filter="url(#filter0_f_75_24)">
<ellipse cx="80" cy="102" rx="50" ry="10" fill="black"/>
</g>
<rect x="35" y="5" width="90" height="90" rx="45" stroke="white" stroke-width="10"/>
<path d="M102.403 36.7514C102.047 36.9989 95.7578 40.1727 95.7578 47.2299C95.7578 55.3927 103.76 58.2805 104 58.352C103.963 58.528 102.729 62.3069 99.7806 66.1573C97.152 69.5457 94.4066 72.9285 90.2302 72.9285C86.0538 72.9285 84.979 70.7558 80.1577 70.7558C75.4593 70.7558 73.7887 73 69.9686 73C66.1484 73 63.4829 69.8647 60.4181 66.0143C56.8682 61.4928 54 54.4686 54 47.802C54 37.1089 61.7632 31.4378 69.4035 31.4378C73.4632 31.4378 76.8473 33.8251 79.3961 33.8251C81.8221 33.8251 85.6055 31.2948 90.2241 31.2948C91.9745 31.2948 98.2636 31.4378 102.403 36.7514ZM88.0314 26.7679C89.9415 24.7382 91.2927 21.9219 91.2927 19.1056C91.2927 18.7151 91.2559 18.319 91.176 18C88.0683 18.1045 84.371 19.8537 82.1415 22.1694C80.3911 23.9516 78.7574 26.7679 78.7574 29.6227C78.7574 30.0517 78.8372 30.4807 78.8741 30.6183C79.0706 30.6513 79.39 30.6898 79.7094 30.6898C82.4977 30.6898 86.0047 29.0176 88.0314 26.7679Z" fill="white"/>
<defs>
<filter id="filter0_f_75_24" x="0" y="62" width="160" height="80" filterUnits="userSpaceOnUse" color-interpolation-filters="sRGB">
<feFlood flood-opacity="0" result="BackgroundImageFix"/>
<feBlend mode="normal" in="SourceGraphic" in2="BackgroundImageFix" result="shape"/>
<feGaussianBlur stdDeviation="15" result="effect1_foregroundBlur_75_24"/>
</filter>
</defs>
</svg>
