<svg width="51" height="51" viewBox="0 0 51 51" fill="none" xmlns="http://www.w3.org/2000/svg">
<path d="M1.65376 15.1116C1.77068 12.5566 2.17074 10.9088 2.71176 9.51004L2.71904 9.49072C3.25517 8.06737 4.09504 6.77796 5.18018 5.71223L5.19541 5.69727L5.21036 5.68204C6.27699 4.5955 7.56685 3.75646 8.98895 3.22175L9.01349 3.21237C10.409 2.66966 12.0536 2.27109 14.6108 2.15418M1.65376 15.1116C1.53084 17.8415 1.49951 18.6877 1.49951 25.7657C1.49951 32.8453 1.52911 33.6895 1.65369 36.4201M1.65376 15.1116L1.65376 15.8002M2.72126 42.0419C3.25597 43.464 4.09502 44.7538 5.18155 45.8205L5.19676 45.8354L5.21169 45.8506C6.27749 46.9357 7.56693 47.7756 8.9903 48.3118L9.01154 48.3198C10.4084 48.8616 12.0538 49.2602 14.6108 49.3771M2.72126 42.0419L2.71188 42.0173C2.16917 40.6218 1.7706 38.9772 1.65369 36.4201M2.72126 42.0419L2.6892 41.8731M1.65369 36.4201L1.69556 36.6405M1.65369 36.4201L1.6537 35.7297M2.6892 41.8731L1.69556 36.6405M2.6892 41.8731C2.2672 40.7581 1.83264 39.2026 1.69556 36.6405M2.6892 41.8731C2.70401 41.9122 2.7188 41.9507 2.73356 41.9888C3.26875 43.4316 4.11673 44.7379 5.21656 45.8141C6.2923 46.9137 7.59819 47.7615 9.04049 48.2967C10.1979 48.7476 11.8289 49.2187 14.6104 49.3462C17.4173 49.4739 18.2846 49.5 25.2652 49.5C32.2458 49.5 33.1137 49.4739 35.9207 49.3462C38.7056 49.2185 40.3347 48.7447 41.488 48.2974C42.9312 47.7625 44.2378 46.9143 45.3138 45.814C46.4133 44.7383 47.2611 43.4325 47.7962 41.9903C48.2471 40.8328 48.7182 39.2019 48.8457 36.4205C48.9734 33.6135 48.9995 32.7445 48.9995 25.7657C48.9995 18.7868 48.9734 17.9171 48.8457 15.1101C48.7174 12.3107 48.2393 10.6792 47.7899 9.5248C47.2023 8.00806 46.4572 6.86093 45.312 5.71568C44.1691 4.57497 43.025 3.82948 41.5071 3.24136C40.3486 2.78842 38.7161 2.31327 35.9207 2.18516C35.6776 2.1741 35.4491 2.1638 35.2298 2.15421M1.69556 36.6405C1.69169 36.5682 1.68806 36.4951 1.68467 36.4212C1.6736 36.1779 1.66329 35.9492 1.6537 35.7297M14.6108 2.15418C17.3413 2.0296 18.1872 2 25.2652 2C32.3431 2 33.1886 2.03129 35.9185 2.15421M14.6108 2.15418L15.3011 2.15418M35.9185 2.15421L35.2298 2.15421M35.9185 2.15421C38.4739 2.27109 40.1219 2.67109 41.5208 3.21217L41.5401 3.21953C42.9635 3.75566 44.2529 4.59552 45.3186 5.68067L45.3334 5.69574L45.3485 5.71055C46.4338 6.77639 47.2736 8.06614 47.8092 9.48989L47.8185 9.51397C48.3612 10.9095 48.7597 12.5541 48.8766 15.1112M15.3011 2.15418L35.2298 2.15421M15.3011 2.15418C17.6133 2.05308 18.8912 2.03132 25.2652 2.03132C31.6397 2.03132 32.9173 2.05309 35.2298 2.15421M15.3011 2.15418C15.0817 2.16378 14.8529 2.17409 14.6096 2.18516C11.8247 2.31279 10.1957 2.7866 9.04229 3.23395C7.59376 3.77092 6.28279 4.6234 5.2044 5.72966C4.06983 6.8689 3.3272 8.01054 2.74095 9.52349C2.28799 10.682 1.81275 12.3153 1.68464 15.1109C1.6736 15.3534 1.66332 15.5814 1.65376 15.8002M48.8766 36.4201C48.7597 38.9771 48.3612 40.6225 47.8194 42.0193L47.8113 42.0406C47.2752 43.4639 46.4353 44.7534 45.3502 45.8191L45.3349 45.834L45.32 45.8493C44.2534 46.9358 42.9635 47.7749 41.5414 48.3096L41.5169 48.3189C40.1213 48.8617 38.4767 49.2602 35.9196 49.3771M1.6537 35.7297C1.5526 33.4176 1.53083 32.1396 1.53083 25.7657C1.53083 19.3898 1.55258 18.1136 1.65376 15.8002M1.6537 35.7297L1.65376 15.8002M21.0383 35.9703C22.3784 36.5254 23.8147 36.8111 25.2652 36.8111C28.1946 36.8111 31.004 35.6473 33.0755 33.5759C35.1469 31.5045 36.3106 28.6951 36.3106 25.7657C36.3106 22.8362 35.1469 20.0268 33.0755 17.9554C31.004 15.884 28.1946 14.7203 25.2652 14.7203C23.8147 14.7203 22.3784 15.006 21.0383 15.561C19.6982 16.1161 18.4806 16.9297 17.4549 17.9554C16.4293 18.981 15.6157 20.1987 15.0606 21.5388C14.5055 22.8789 14.2198 24.3152 14.2198 25.7657C14.2198 27.2162 14.5055 28.6525 15.0606 29.9926C15.6157 31.3326 16.4292 32.5503 17.4549 33.5759C18.4806 34.6016 19.6982 35.4152 21.0383 35.9703ZM17.4303 17.9308C19.5082 15.8528 22.3265 14.6855 25.2652 14.6855C28.2038 14.6855 31.0221 15.8528 33.1001 17.9308C35.178 20.0087 36.3454 22.827 36.3454 25.7657C36.3454 28.7043 35.178 31.5226 33.1001 33.6005C31.0221 35.6785 28.2038 36.8459 25.2652 36.8459C22.3265 36.8459 19.5082 35.6785 17.4303 33.6005C15.3524 31.5226 14.185 28.7043 14.185 25.7657C14.185 22.827 15.3524 20.0087 17.4303 17.9308ZM42.5846 12.1057C42.5846 12.9468 42.2505 13.7535 41.6557 14.3482C41.061 14.943 40.2543 15.2771 39.4132 15.2771C38.5721 15.2771 37.7655 14.943 37.1707 14.3482C36.576 13.7535 36.2418 12.9468 36.2418 12.1057C36.2418 11.2646 36.576 10.458 37.1707 9.86324C37.7655 9.26849 38.5721 8.93437 39.4132 8.93437C40.2543 8.93437 41.061 9.26849 41.6557 9.86324C42.2505 10.458 42.5846 11.2646 42.5846 12.1057Z" stroke="white" stroke-width="2.07951" stroke-linejoin="round"/>
</svg>
