<svg width="54" height="54" viewBox="0 0 54 54" fill="none" xmlns="http://www.w3.org/2000/svg">
<path d="M52 5.67647V48.3235C52 49.2986 51.6127 50.2337 50.9232 50.9232C50.2337 51.6127 49.2986 52 48.3235 52H5.67647C4.70141 52 3.76629 51.6127 3.07681 50.9232C2.38734 50.2337 2 49.2986 2 48.3235V5.67647C2 4.70141 2.38734 3.76629 3.07681 3.07681C3.76629 2.38734 4.70141 2 5.67647 2L48.3235 2C49.2986 2 50.2337 2.38734 50.9232 3.07681C51.6127 3.76629 52 4.70141 52 5.67647V5.67647ZM16.7059 21.1176H9.35294V44.6471H16.7059V21.1176ZM17.3676 13.0294C17.3715 12.4732 17.2658 11.9217 17.0565 11.4064C16.8473 10.891 16.5385 10.422 16.148 10.026C15.7574 9.62995 15.2927 9.31473 14.7803 9.09833C14.2679 8.88192 13.718 8.76856 13.1618 8.76471H13.0294C11.8983 8.76471 10.8136 9.21402 10.0138 10.0138C9.21402 10.8136 8.76471 11.8983 8.76471 13.0294C8.76471 14.1605 9.21402 15.2452 10.0138 16.045C10.8136 16.8448 11.8983 17.2941 13.0294 17.2941V17.2941C13.5856 17.3078 14.1391 17.2118 14.6582 17.0115C15.1773 16.8112 15.6518 16.5106 16.0547 16.1268C16.4576 15.743 16.7809 15.2837 17.0062 14.7749C17.2315 14.2662 17.3543 13.718 17.3676 13.1618V13.0294ZM44.6471 30.3529C44.6471 23.2794 40.1471 20.5294 35.6765 20.5294C34.2127 20.4561 32.7553 20.7679 31.4496 21.4336C30.144 22.0994 29.0357 23.0958 28.2353 24.3235H28.0294V21.1176H21.1176V44.6471H28.4706V32.1324C28.3643 30.8506 28.768 29.5787 29.5941 28.593C30.4202 27.6072 31.6018 26.9872 32.8824 26.8676H33.1618C35.5 26.8676 37.2353 28.3382 37.2353 32.0441V44.6471H44.5882L44.6471 30.3529Z" stroke="white" stroke-width="2.07951" stroke-linejoin="round"/>
</svg>
