<svg width="160" height="141" viewBox="0 0 160 141" fill="none" xmlns="http://www.w3.org/2000/svg">
<g filter="url(#filter0_f_75_21)">
<ellipse cx="80" cy="101" rx="50" ry="10" fill="black"/>
</g>
<path d="M80 0C52.3864 0 30 22.3841 30 50C30 77.6159 52.3864 100 80 100C107.614 100 130 77.6159 130 50C130 22.3841 107.614 0 80 0ZM104.394 72.078C103.591 73.5 102.114 74.3 100.591 74.3C99.8788 74.3 99.1439 74.122 98.4697 73.747C92.2273 70.247 85.4243 68.103 78.2349 67.375C71.0303 66.653 63.9167 67.3841 57.0833 69.5659C54.803 70.2939 52.3485 69.0341 51.6212 66.75C50.8864 64.4621 52.1515 62.0159 54.4394 61.2841C62.4091 58.7379 70.7197 57.872 79.1136 58.725C87.4924 59.578 95.4318 62.078 102.72 66.1629C104.818 67.3311 105.568 69.9811 104.394 72.078ZM110.379 56.8909C109.606 58.378 108.091 59.2311 106.523 59.2311C105.841 59.2311 105.159 59.075 104.515 58.7379C96.8409 54.7409 88.553 52.2659 79.8636 51.3841C71.106 50.4879 62.4318 51.2689 54.0682 53.6811C51.7576 54.3371 49.3485 53.0159 48.6894 50.7061C48.0228 48.4 49.356 45.9909 51.6591 45.325C61.0985 42.603 70.8863 41.7311 80.7424 42.7311C90.5303 43.728 99.8788 46.5159 108.538 51.028C110.659 52.1379 111.492 54.7621 110.379 56.8909ZM112.545 44.2561C111.894 44.2561 111.235 44.1091 110.606 43.8C101.5 39.2591 91.7045 36.4311 81.4848 35.3939C71.25 34.347 61.0682 35.1561 51.2121 37.7879C48.8939 38.403 46.5151 37.028 45.8939 34.7061C45.2727 32.3871 46.6516 30.003 48.9773 29.3841C59.8485 26.4811 71.0909 25.597 82.3712 26.7439C93.6364 27.8841 104.439 31.0061 114.485 36.0159C116.636 37.0871 117.508 39.7 116.439 41.847C115.682 43.375 114.144 44.2561 112.545 44.2561Z" fill="white"/>
<defs>
<filter id="filter0_f_75_21" x="0" y="61" width="160" height="80" filterUnits="userSpaceOnUse" color-interpolation-filters="sRGB">
<feFlood flood-opacity="0" result="BackgroundImageFix"/>
<feBlend mode="normal" in="SourceGraphic" in2="BackgroundImageFix" result="shape"/>
<feGaussianBlur stdDeviation="15" result="effect1_foregroundBlur_75_21"/>
</filter>
</defs>
</svg>
