<svg width="54" height="54" viewBox="0 0 54 54" fill="none" xmlns="http://www.w3.org/2000/svg">
<path fill-rule="evenodd" clip-rule="evenodd" d="M51.9927 27C51.9927 40.8071 40.7998 52 26.9927 52C13.1856 52 1.99268 40.8071 1.99268 27C1.99268 13.1929 13.1856 2 26.9927 2C40.7998 2 51.9927 13.1929 51.9927 27ZM27.8885 20.4561C25.4569 21.4675 20.5971 23.5608 13.3091 26.7361C12.1256 27.2067 11.5057 27.6671 11.4493 28.1173C11.3539 28.8781 12.3066 29.1777 13.6041 29.5857C13.7805 29.6412 13.9634 29.6987 14.1509 29.7596C15.4273 30.1745 17.1444 30.66 18.037 30.6793C18.8467 30.6967 19.7504 30.3629 20.7482 29.6778C27.5576 25.0813 31.0726 22.7579 31.2933 22.7079C31.449 22.6725 31.6647 22.6281 31.8109 22.758C31.9571 22.8879 31.9427 23.134 31.9272 23.2C31.8328 23.6024 28.0929 27.0794 26.1575 28.8787C25.5541 29.4397 25.1261 29.8376 25.0386 29.9284C24.8427 30.132 24.6429 30.3245 24.4509 30.5096C23.2651 31.6528 22.3758 32.5101 24.5002 33.91C25.5211 34.5827 26.338 35.1391 27.153 35.6941C28.043 36.3002 28.9307 36.9047 30.0793 37.6577C30.372 37.8495 30.6515 38.0487 30.9237 38.2428C31.9595 38.9812 32.89 39.6446 34.0397 39.5389C34.7077 39.4774 35.3978 38.8492 35.7482 36.9758C36.5764 32.5482 38.2044 22.9551 38.5806 19.002C38.6136 18.6557 38.5721 18.2124 38.5388 18.0179C38.5055 17.8233 38.4359 17.5461 38.183 17.3408C37.8835 17.0978 37.4211 17.0465 37.2142 17.05C36.2739 17.0667 34.8313 17.5684 27.8885 20.4561Z" stroke="white" stroke-width="2.07951" stroke-linejoin="round"/>
</svg>
