<svg width="100" height="100" viewBox="0 0 100 100" fill="none" xmlns="http://www.w3.org/2000/svg">
<g clip-path="url(#clip0_50_85)">
<mask id="mask0_50_85" style="mask-type:alpha" maskUnits="userSpaceOnUse" x="0" y="0" width="100" height="100">
<ellipse cx="50.0977" cy="49.9994" rx="49.9023" ry="49.9023" fill="#C4C4C4"/>
</mask>
<g mask="url(#mask0_50_85)">
<path d="M20.2322 9.82597C27.634 4.34129 36.3823 1.02575 45.5 0.201904V15.2895C39.6061 16.0536 33.9774 18.3101 29.1625 21.8779C23.1336 26.3452 18.7001 32.6319 16.5158 39.8105C14.3315 46.9892 14.512 54.6798 17.0309 61.748C19.5498 68.8162 24.2735 74.8878 30.5054 79.0673C36.7374 83.2467 44.1475 85.3127 51.6428 84.9605C59.1382 84.6083 66.3219 81.8565 72.1345 77.1111C77.947 72.3657 82.0806 65.8779 83.9255 58.6046C85.2124 53.5314 85.3383 48.2633 84.3302 43.1845L97 32.999L96.9915 32.9169C100.412 42.3247 100.934 52.5597 98.4651 62.2928C95.8294 72.6832 89.9243 81.9514 81.6207 88.7306C73.317 95.5097 63.0545 99.4408 52.3469 99.9439C41.6393 100.447 31.0534 97.4957 22.1506 91.5251C13.2479 85.5545 6.49965 76.8808 2.90129 66.7833C-0.697076 56.6858 -0.955063 45.6992 2.16538 35.444C5.28582 25.1888 11.6195 16.2079 20.2322 9.82597Z" fill="white"/>
<path d="M87.4468 16.8661L87.5 16.999L79.0333 30.4461C75.9545 25.8835 71.8285 22.0857 67 19.3976V49.999C67 59.3879 59.3888 66.999 50 66.999C40.6112 66.999 33 59.3879 33 49.999C33 40.6102 40.6112 32.999 50 32.999C53.5187 32.999 56.7877 34.0681 59.5 35.8991V0.900391C70.537 3.02329 80.2828 8.77534 87.4468 16.8661Z" fill="white"/>
</g>
</g>
<defs>
<clipPath id="clip0_50_85">
<rect width="100" height="100" fill="white"/>
</clipPath>
</defs>
</svg>
