<svg width="160" height="142" viewBox="0 0 160 142" fill="none" xmlns="http://www.w3.org/2000/svg">
<g filter="url(#filter0_f_150_43)">
<ellipse cx="80" cy="102" rx="50" ry="10" fill="black"/>
</g>
<mask id="mask0_150_43" style="mask-type:alpha" maskUnits="userSpaceOnUse" x="30" y="0" width="100" height="100">
<ellipse cx="80.0977" cy="49.9994" rx="49.9023" ry="49.9023" fill="#C4C4C4"/>
</mask>
<g mask="url(#mask0_150_43)">
<path d="M50.2322 9.82597C57.634 4.34129 66.3823 1.02575 75.5 0.201904V15.2895C69.6061 16.0536 63.9774 18.3101 59.1625 21.8779C53.1336 26.3452 48.7001 32.6319 46.5158 39.8105C44.3315 46.9892 44.512 54.6798 47.0309 61.748C49.5498 68.8162 54.2735 74.8878 60.5054 79.0673C66.7374 83.2467 74.1475 85.3127 81.6428 84.9605C89.1382 84.6083 96.3219 81.8565 102.134 77.1111C107.947 72.3657 112.081 65.8779 113.926 58.6046C115.212 53.5314 115.338 48.2633 114.33 43.1845L127 32.999L126.992 32.9169C130.412 42.3247 130.934 52.5597 128.465 62.2928C125.829 72.6832 119.924 81.9514 111.621 88.7306C103.317 95.5097 93.0545 99.4408 82.3469 99.9439C71.6393 100.447 61.0534 97.4957 52.1506 91.5251C43.2479 85.5545 36.4997 76.8808 32.9013 66.7833C29.3029 56.6858 29.0449 45.6992 32.1654 35.444C35.2858 25.1888 41.6195 16.2079 50.2322 9.82597Z" fill="white"/>
<path d="M117.447 16.8661L117.5 16.999L109.033 30.4461C105.954 25.8835 101.828 22.0857 97 19.3976V49.999C97 59.3879 89.3888 66.999 80 66.999C70.6112 66.999 63 59.3879 63 49.999C63 40.6102 70.6112 32.999 80 32.999C83.5187 32.999 86.7877 34.0681 89.5 35.8991V0.900391C100.537 3.02329 110.283 8.77534 117.447 16.8661Z" fill="white"/>
</g>
<defs>
<filter id="filter0_f_150_43" x="0" y="62" width="160" height="80" filterUnits="userSpaceOnUse" color-interpolation-filters="sRGB">
<feFlood flood-opacity="0" result="BackgroundImageFix"/>
<feBlend mode="normal" in="SourceGraphic" in2="BackgroundImageFix" result="shape"/>
<feGaussianBlur stdDeviation="15" result="effect1_foregroundBlur_150_43"/>
</filter>
</defs>
</svg>
